<svg fill="#ffffff" height="50px" width="50px" version="1.1" id="Layer_1" xmlns="http://www.w3.org/2000/svg" xmlns:xlink="http://www.w3.org/1999/xlink" viewBox="0 0 512 512" xml:space="preserve" stroke="#ffffff"><g id="SVGRepo_bgCarrier" stroke-width="0"></g><g id="SVGRepo_tracerCarrier" stroke-linecap="round" stroke-linejoin="round"></g><g id="SVGRepo_iconCarrier"> <g> <g> <g> <path d="M235.745,279.925c8.33,8.33,8.33,21.831,0,30.161s-21.852,8.33-30.182,0l-30.165-30.165 c-8.331-8.331-21.839-8.331-30.17,0c-8.331,8.331-8.331,21.839,0,30.17l30.165,30.165c24.992,24.992,65.529,24.992,90.522,0 c24.993-24.993,24.993-65.508,0-90.501c-8.33-8.33-8.33-21.852,0-30.182c8.33-8.33,21.831-8.33,30.161,0l30.16,30.181 c8.328,8.334,21.836,8.339,30.17,0.011c8.334-8.328,8.339-21.836,0.011-30.17l-30.165-30.187 c-24.998-24.998-65.513-24.998-90.506-0.005C210.752,214.396,210.752,254.933,235.745,279.925z"></path> <path d="M505.748,6.248c-8.331-8.331-21.839-8.331-30.17,0l-41.927,41.927L229.499,77.334c-4.57,0.653-8.805,2.77-12.069,6.035 L6.251,294.569c-8.331,8.331-8.33,21.838,0.001,30.169l181.013,181.013c8.331,8.331,21.838,8.331,30.169,0.001l211.2-211.179 c3.265-3.264,5.382-7.499,6.035-12.069L463.83,78.337l41.919-41.919C514.08,28.087,514.08,14.58,505.748,6.248z M393.436,269.431 L202.351,460.498L51.506,309.653l191.067-191.086l176.002-25.138L393.436,269.431z"></path> </g> </g> </g> </g></svg>